<svg xmlns="http://www.w3.org/2000/svg" width="76" height="15" viewBox="0 0 76 15">
  <g fill="none" fill-rule="evenodd">
    <path fill="#231F20" d="M10.635 9.56c-.28-.203-.59-.36-.918-.467-.34-.112-.68-.207-1.017-.286-.22-.054-1.127-.342-1.338-.428-.19-.08-.36-.19-.494-.34-.123-.15-.187-.34-.18-.54 0-.13.03-.25.083-.36.07-.13.16-.23.27-.31.15-.1.31-.17.48-.21.25-.06.5-.08.75-.06.29.02.57.07.85.15.34.11.58.21.78.3l1.31-1.21c-.91-.69-2.02-1.07-3.16-1.11-.47-.01-.95.06-1.41.19-.85.2-1.57.76-1.97 1.54-.23.39-.35.84-.36 1.3 0 .38.08.75.25 1.1.15.29.37.54.63.74.26.2.55.36.86.48.33.12 1.57.53 1.82.6.23.05.46.13.68.23.18.08.34.19.48.33.14.16.2.37.18.58-.08.66-.66 1.14-1.32 1.1-.39.01-.78-.04-1.16-.15-.51-.13-.99-.33-1.45-.59l-1.07 1.33c1.09.81 2.42 1.25 3.78 1.25 1.34 0 2.58-.67 3.3-1.79.23-.44.34-.92.34-1.41.01-.43-.083-.85-.28-1.22-.16-.31-.39-.57-.67-.78zM0 5.1h2.273v9.275H0V5.1zm2.273-4.017C1.52.965.753.965 0 1.083v2.09h2.273v-2.09zM35.03 14.46V8.227c0-2.185-1.167-3.052-3.52-3.052-1.243.004-2.473.254-3.618.735l.283 1.807c.948-.456 1.982-.706 3.033-.735 1 0 1.564.377 1.564 1.356V8.6c-3.673.358-5.482 1.32-5.482 3.522-.045.692.215 1.37.71 1.855.497.485 1.18.73 1.87.67 1.16 0 2.266-.5 3.03-1.373l.188 1.187h1.942zm-2.26-2.504c-.55.6-1.316.952-2.128.98-.294.032-.587-.066-.8-.27-.216-.203-.33-.49-.31-.786 0-.867.62-1.64 3.24-1.96v2.035zm12.337 2.505V.86l-2.26.358v4.39c-.68-.23-1.393-.346-2.11-.34-2.11 0-3.975 1.507-3.975 4.9 0 3.07 1.526 4.483 3.428 4.483 1.104-.02 2.134-.56 2.788-1.45l.188 1.27h1.94zm-2.26-3.07c-.455.72-1.224 1.18-2.072 1.25-1 0-1.752-.83-1.752-2.6 0-2 .867-2.95 2.053-2.95.615-.01 1.223.12 1.77.4v3.91zm17.78 3.07V7.91c0-1.7-.848-2.73-2.562-2.73-1.168.06-2.262.59-3.033 1.468-.347-.968-1.31-1.574-2.332-1.47-1.156.068-2.237.597-3 1.47l-.206-1.28h-1.92v9.1h2.26V8.3c.494-.63 1.22-1.037 2.015-1.13.34-.014.67.13.89.392.22.26.31.61.24.945v5.952h2.26V8.3c.49-.63 1.22-1.037 2.01-1.13.34-.01.66.135.88.396.21.262.3.61.23.94v5.953h2.26zm4.593-11.9c0-.74-.603-1.34-1.347-1.34s-1.347.61-1.347 1.35c.04.72.633 1.28 1.35 1.28.716 0 1.306-.56 1.344-1.28v.01zm-.226 11.9v-9.1h-2.26v9.1h2.26zm10.115 0V7.91c.09-.726-.15-1.455-.65-1.985-.51-.53-1.23-.803-1.95-.745-1.17.068-2.26.597-3.04 1.47l-.21-1.282h-1.92v9.1h2.26V8.32c.5-.648 1.25-1.063 2.07-1.15.34-.016.68.126.9.387.23.26.32.61.26.95v5.953h2.27z"/>
    <path fill="#FFC21D" d="M20.644 5.36l.745-.233.73-.23c-.03-.27-.09-.54-.17-.8l-.06-.183c-.1-.258-.21-.506-.35-.742l-.74.228-.75.233-.77.244-.72.223H16.7l-.725-.228-.765-.24-.742-.232-.73-.232c-.14.24-.26.492-.355.755l-.05.15c-.085.265-.14.538-.17.814l.73.24.744.233.76.24.722.228-.45.6-.48.63-.46.61-.45.6c.19.21.41.4.64.566l.12.09c.23.158.48.294.74.407l.45-.6.46-.61.48-.63.44-.6.45.6.47.63.46.61.45.6c.25-.11.5-.25.74-.4l.13-.09c.23-.16.44-.35.63-.56l-.45-.6-.46-.61-.47-.63-.45-.6.722-.22.765-.24z"/>
    <path fill="#FFC21D" d="M18.58 3.173V1.09c-.618-.127-1.254-.127-1.872 0v2.083h1.872z"/>
  </g>
</svg>
