<svg xmlns="http://www.w3.org/2000/svg" width="18.656" height="18" viewBox="0 0 18.656 18">
  <path fill="currentColor" d="M3.513 17.965c-1.04 0-1.628-.256-1.8-.784a.885.885 0 0 1 .312-.974 3.077 3.077 0 0 0 1.367-2.027A7.26 7.26 0 0 1 .025 8.962a7.15 7.15 0 0 1 1.517-5.158A10.12 10.12 0 0 1 8.434.09a11.17 11.17 0 0 1 1.29-.075c4.624 0 8.44 2.92 8.88 6.793a7.864 7.864 0 0 1-1.533 5.715 8.573 8.573 0 0 1-5.924 3.158 11.255 11.255 0 0 1-1.283.076c-.336 0-.673-.015-1.007-.046a7.837 7.837 0 0 1-5.342 2.255zM9.726 1.55a9.887 9.887 0 0 0-1.126.065A8.645 8.645 0 0 0 2.706 4.76a5.512 5.512 0 0 0-1.2 4.024A5.818 5.818 0 0 0 4.5 13.07a.77.77 0 0 1 .372.585 3.69 3.69 0 0 1-.89 2.75 6.538 6.538 0 0 0 4.07-2.034.724.724 0 0 1 .625-.226 9.555 9.555 0 0 0 1.188.074 9.766 9.766 0 0 0 1.118-.064 7.024 7.024 0 0 0 4.923-2.588 6.3 6.3 0 0 0 1.22-4.58c-.35-3.098-3.53-5.435-7.4-5.435z"/>
</svg>
